<?xml version="1.0" encoding="UTF-8" standalone="no"?>
<!-- Created with Inkscape (http://www.inkscape.org/) -->

<svg
   width="164.16034mm"
   height="42.678127mm"
   viewBox="0 0 164.16034 42.678127"
   version="1.1"
   id="svg1"
   xml:space="preserve"
   xmlns="http://www.w3.org/2000/svg"
   xmlns:svg="http://www.w3.org/2000/svg"><defs
     id="defs1" /><g
     id="layer1"
     transform="translate(-15.479821,-173.6754)"><path
       d="m 35.603141,174.48289 -13.97589,35.44383 c -2.25727,3.69807 -6.14743,3.64991 -6.14743,3.64991 v 1.96939 h 15.27297 v -2.01745 c 0,0 -6.57937,-0.33942 -5.85959,-3.02566 0.509,-2.15798 1.53966,-5.26844 2.85667,-8.90178 h 14.28233 c 1.2115,3.17699 2.32473,6.20206 3.32073,9.04596 0.0167,0.36301 1.71197,2.72067 -4.85087,2.83239 v 2.06654 h 16.71371 v -2.01745 c -4.80272,0 -6.00377,-4.37028 -6.00377,-4.37028 l -13.30358,-34.6754 z m -0.86403,8.88473 c 2.26221,5.46105 4.37687,10.69454 6.28023,15.60111 h -12.30054 c 1.79829,-4.8197 3.95842,-10.2999 6.02031,-15.60111 z"
       style="fill:#ffffff;fill-opacity:1;stroke-width:0.2"
       id="path17" /><path
       d="m 61.182232,174.72319 v 2.13992 c 0,0 5.26376,-0.0681 5.26376,2.47891 v 31.17537 c -0.76884,2.82513 -5.33198,2.61535 -5.33198,2.61535 v 2.10529 h 17.25218 v -1.9699 c 0,0 -5.46774,0.33995 -5.67149,-2.92024 -0.20376,-3.26019 0,-13.48238 0,-13.48238 h 4.0411 l 13.04106,18.44022 h 10.833468 v -2.1053 c 0,0 -3.871958,0.33943 -6.351048,-2.68304 -2.47912,-3.02247 -11.51248,-15.11225 -11.51248,-15.11225 0,0 9.8485,-1.79992 9.8485,-10.93525 0,-9.13533 -9.78058,-9.7467 -12.97286,-9.7467 z m 16.366441,2.12907 c 3.03512,0.0484 8.036199,1.02626 8.036199,8.07755 0,9.40174 -8.95707,9.43766 -8.95707,9.43766 h -3.98632 v -17.43253 c 0,0 1.22644,-0.0119 2.78535,-0.0119 0.31689,0 1.11013,-0.0869 2.12184,-0.0708 z"
       style="opacity:1;fill:#ffffff;stroke-width:0.2"
       id="path22" /><path
       style="opacity:1;fill:#ffffff;fill-opacity:1;stroke:none;stroke-width:0.2"
       d="m 134.91453,204.81492 -2.06516,-0.96054 c 0,0 -3.98626,11.86271 -15.41671,8.35673 -11.43048,-3.50599 -10.13375,-19.30692 -10.13375,-19.30692 0,0 -0.33618,-11.04625 7.30014,-15.46475 7.63633,-4.4185 14.8404,1.68095 16.37726,11.47849 h 2.25728 v -14.25199 h -2.32418 l -1.27351,1.86782 c 0,0 -9.18355,-7.02644 -21.42446,0.95371 -11.199992,7.30154 -10.623812,31.10183 3.06991,37.12359 11.53234,5.0713 21.47794,-1.7603 23.63318,-9.79614 z"
       id="path23" /><path
       d="m 162.85464,174.72294 v 1.8743 c 0,0 5.28753,0.30556 5.28753,3.40444 v 12.69535 H 149.0591 v -12.99094 c 0,-0.13377 0.10786,-3.15794 5.34282,-3.15794 V 174.771 h -16.6796 v 1.80919 c 0,0 5.34024,0.24636 5.34024,3.27732 v 30.64567 c 0,0 -0.0994,2.59364 -5.27823,2.59364 v 2.04122 h 16.61759 v -2.04122 c 0,0 -5.33094,-0.14393 -5.33094,-2.88148 V 195.2545 h 19.04277 v 15.20062 c 0,0 0.26402,2.54558 -5.25911,2.54558 v 2.30529 h 16.78553 v -2.1854 c 0,0 -5.51335,-0.051 -5.51335,-3.18327 v -29.97956 c 0,0 -0.37007,-3.4339 5.36918,-3.4339 v -1.80092 z"
       style="opacity:1;fill:#ffffff;stroke-width:0.2"
       id="path28" /></g></svg>
